<svg width="952" height="1019" viewBox="0 0 952 1019" fill="none" xmlns="http://www.w3.org/2000/svg">
<g clip-path="url(#clip0_763_2553)">
<rect x="134" y="186" width="788" height="788" rx="394" fill="#EFC300"/>
<path d="M46.7465 751.837L46.7464 751.837C43.4411 774.986 48.8319 795.983 62.9099 814.798C76.9879 833.613 95.5982 844.694 118.716 848.024L620.215 920.249C643.357 923.611 664.352 918.234 683.171 904.128C701.99 890.022 713.073 871.398 716.403 848.28L788.628 346.781C791.982 323.695 786.602 302.714 772.501 283.867C758.399 265.02 739.777 253.923 716.659 250.594L633.57 238.627C640.062 192.719 629.303 151.04 601.303 113.618C573.202 76.0609 536.088 53.9539 489.984 47.3141C443.881 40.6743 402.037 51.4098 364.48 79.5107C327.058 107.511 304.975 144.46 298.248 190.334L215.159 178.368L215.159 178.368C192.065 175.07 171.083 180.463 152.24 194.537C133.397 208.611 122.302 227.219 118.972 250.337L46.7465 751.837ZM703.984 335.095L631.901 835.605L131.391 763.522L203.474 263.012L286.068 274.907L274.101 357.996C272.378 369.961 274.991 380.593 281.947 389.856C288.902 399.118 298.363 404.625 310.296 406.372C322.231 408.12 332.861 405.52 342.152 398.569C351.442 391.617 356.951 382.142 358.674 370.176L370.641 287.087L536.817 311.02L524.851 394.108C523.128 406.074 525.741 416.706 532.697 425.969C539.652 435.231 549.113 440.738 561.046 442.485C572.981 444.232 583.61 441.633 592.901 434.682C602.192 427.73 607.701 418.255 609.424 406.289L621.39 323.2L703.984 335.095ZM548.996 226.447L382.823 202.515C386.248 179.954 397.176 161.746 415.627 147.867C434.211 133.888 454.927 128.564 477.804 131.887C500.681 135.21 519.068 146.165 532.988 164.77C546.807 183.24 552.14 203.789 548.996 226.447Z" fill="#101020" stroke="black"/>
<path d="M230.917 464.075C208.198 488.497 190.12 508.948 190.524 509.514C190.968 509.837 217.995 542.008 250.435 580.565L309.497 650.727L322.772 633.72C336.007 616.956 336.088 616.47 334.548 606.237C323.207 532.013 321.179 514.215 324.772 512.067C326.749 510.648 346.205 499.905 367.557 488.228C403.885 468.807 406.468 466.741 401.46 463.915C398.755 462.219 386.8 454.748 375.37 447.116L354.489 433.426L313.546 426.637L272.36 419.808L230.917 464.075ZM321.231 455.352C344.573 464.71 343.804 461.838 327.704 480.872C319.956 490.064 312.895 498.123 312.047 498.731C311.442 499.379 306.351 492.548 300.856 483.654L290.552 467.727L275.943 480.771C267.993 488.184 261.173 494.786 260.971 496C260.81 496.971 263.477 500.407 266.951 503.477L272.969 509.215L255.043 509.236C239.095 509.336 236.955 508.731 233.238 504.124C231.177 501.537 229.48 498.262 229.681 497.048C229.883 495.834 241.102 485.222 254.743 473.514C275.93 455.324 281.218 451.96 290.342 450.978C303.746 449.708 308.147 450.189 321.231 455.352Z" fill="#101020"/>
<path d="M489.766 467.328C475.435 471.189 462.598 475.047 461.427 476.1C460.055 476.871 473.306 493.037 490.838 511.91C508.33 531.025 522.59 547.109 522.429 548.08C522.268 549.052 512.103 569.817 499.599 594.187L476.809 638.553L482.795 659.502C486.394 670.826 489.548 680.329 490.032 680.409C492.213 680.771 646.883 585.679 647.77 583.332C648.254 581.915 637.946 557.006 624.568 528.096L600.438 475.451L558.121 467.936L515.805 460.42L489.766 467.328ZM574.528 498.096C582.605 501.93 586.726 507.104 600.829 531.644L617.437 560.591L610.939 565.251C604.481 569.668 603.714 569.79 588.652 564.549C579.97 561.363 572.943 558.701 573.024 558.216C573.104 557.73 576.616 556.067 581.177 554.08L588.968 550.632L578.825 532.236L568.439 513.801L553.789 525.59C541.722 535.314 538.492 536.774 537.037 533.54C530.368 518.215 523.253 499.573 523.049 496.296C522.967 493.788 526.883 492.691 537.905 492.273C556.922 491.685 562.736 492.649 574.528 498.096Z" fill="#101020"/>
<path d="M352.79 580.321L351.18 590.033L362.082 591.84L372.984 593.648L374.594 583.937L376.204 574.225L365.302 572.418L354.4 570.61L352.79 580.321Z" fill="#101020"/>
<path d="M449.659 596.632L448.049 606.344L459.799 607.544C471.306 608.703 471.306 608.703 473.563 599.598L475.779 590.736L463.665 588.727L451.31 586.678L449.659 596.632Z" fill="#101020"/>
<path d="M352.257 651.082L337.043 666.271L310.515 662.621C295.938 660.454 282.897 659.539 281.484 660.552C276.116 664.401 288.677 672.72 313.996 682.157L340.285 691.755L345.39 727.026L350.292 762.015L363.617 764.224C375.246 766.152 377.023 765.948 376.455 761.863C376.091 759.557 374.543 731.361 372.589 699.606C370.918 667.647 368.967 640.382 368.239 638.765C367.794 636.945 360.691 642.253 352.257 651.082Z" fill="#101020"/>
<path d="M428.502 673.202C422.614 687.692 411.322 715.256 403.459 734.158L389.264 768.724L402.952 770.246L416.397 771.727L432.975 739.302L449.594 706.634L478.542 706.196C507.774 705.554 513.991 704.091 514.997 698.021C515.44 695.35 509.746 693.658 488.426 690.123C473.406 687.632 460 684.412 458.949 683.24C457.657 682.028 453.454 674.346 449.332 666.179C445.452 658.052 441.531 650.167 440.723 649.036C440.198 647.701 434.672 658.509 428.502 673.202Z" fill="#101020"/>
</g>
<defs>
<clipPath id="clip0_763_2553">
<rect width="952" height="1019" fill="white"/>
</clipPath>
</defs>
</svg>
