<svg width="200" height="30" viewBox="0 0 200 30" fill="none" xmlns="http://www.w3.org/2000/svg">
<g clip-path="url(#clip0_2294_2361)">
<path fill-rule="evenodd" clip-rule="evenodd" d="M48.7422 29.8335V26.9446C48.7422 24.278 48.7422 21.6113 48.7422 18.9446C48.7422 18.3058 48.968 18.0558 49.7422 18.0835C50.6455 18.1391 51.581 18.0835 52.6777 18.0835V23.5002C52.7745 23.5002 52.8713 23.528 52.968 23.5558C53.1293 23.3613 53.3229 23.1946 53.4842 22.9724C54.581 21.4169 55.6455 19.8335 56.7745 18.2502C56.968 17.9724 57.2261 17.6391 57.5487 17.5558C58.9358 17.1669 60.3551 16.8613 62.0326 16.4724C61.3229 17.5558 60.71 18.4446 60.0003 19.4724H77.839C74.839 15.1391 71.9358 10.9169 68.9035 6.52799C67.1939 8.97244 65.4519 11.1946 64.0971 13.5835C62.9035 15.6946 60.7745 15.5835 58.4519 15.8891C58.9035 15.2224 59.1939 14.7224 59.5164 14.2502C61.7745 11.0002 64.0326 7.75021 66.2584 4.47243C66.6455 3.8891 67.1293 3.72243 67.9035 3.6391C70.1939 3.36132 71.4519 4.16688 72.581 5.91688C76.2261 11.4724 80.1293 16.9446 83.9035 22.4169C84.1616 22.778 84.4197 23.1391 84.968 23.4446V0.111328C85.6132 0.111328 86.0648 0.111328 86.5164 0.111328C95.0003 0.111328 103.452 0.111327 111.935 0.139105C114.677 0.139105 117.323 0.666883 119.677 1.94466C124.935 4.80577 125.129 10.2502 120.097 13.3891C119.645 13.6669 119.161 13.9446 118.548 14.3058C119.097 14.6669 119.581 14.9724 120.065 15.278C122.226 16.6946 123.452 18.5002 123.355 20.9169C123.29 22.4724 123.355 24.0558 123.355 25.6113C123.355 27.0835 123.613 28.528 124.839 29.8335C123.677 29.8335 122.677 29.8891 121.71 29.8058C121.387 29.8058 120.935 29.4446 120.871 29.1946C120.581 28.1391 120.29 27.0558 120.226 25.9724C120.129 24.278 120.161 22.5835 120.226 20.8891C120.29 19.5002 119.581 18.4446 118.387 17.6113C116.645 16.3891 114.613 15.6946 112.419 15.6946C104.871 15.6391 97.3229 15.6946 89.7745 15.6946C89.6132 15.6946 89.4842 15.7224 89.1939 15.7502C89.1939 16.1946 89.0971 16.6669 89.0971 17.1113C89.0971 20.9724 89.0971 24.8335 89.0971 28.6946C89.0971 29.5835 88.839 29.8335 87.7422 29.9169C85.71 30.0835 84.4842 29.5558 83.581 27.9169C82.6455 26.1946 81.4197 24.6113 80.2261 23.028C79.9681 22.6946 79.3551 22.3613 78.8713 22.3613C72.2584 22.3058 65.6455 22.3613 59.0326 22.3335C58.3229 22.3335 57.9035 22.528 57.5487 23.0558C56.1939 25.1113 54.7422 27.1113 53.3874 29.1669C53.0003 29.7502 52.5809 29.9446 51.839 29.8891C50.9035 29.8335 50.0003 29.8891 48.839 29.8891L48.7422 29.8335ZM89.0971 2.86132V12.8613C89.3551 12.8891 89.5164 12.9446 89.6455 12.9446C97.1616 12.9446 104.645 12.9724 112.161 12.9446C114.323 12.9446 116.355 12.3613 118.129 11.2224C121.419 9.11132 121.226 5.97243 117.677 4.19466C115.839 3.27799 113.806 2.8891 111.677 2.8891C104.613 2.8891 97.5164 2.8891 90.4519 2.8891H89.0971V2.86132Z" fill="white"/>
<path fill-rule="evenodd" clip-rule="evenodd" d="M157.774 29.8337V3.75038C159.419 3.75038 161 3.7226 162.581 3.77816C162.903 3.77816 163.258 4.16704 163.452 4.44482C168.387 11.556 173.323 18.6949 178.226 25.806C178.452 26.1115 178.645 26.4171 179 26.8893C179.323 26.4449 179.581 26.1393 179.806 25.8337C184.71 18.7504 189.613 11.6393 194.516 4.55593C194.903 3.9726 195.323 3.69482 196.161 3.7226C197.355 3.77816 198.548 3.7226 199.806 3.7226V29.7504H195.839V9.05593C195.742 9.02816 195.677 9.00038 195.581 8.9726C195.387 9.2226 195.161 9.44482 195 9.69482C190.613 16.056 186.194 22.3893 181.839 28.7504C181.323 29.5282 180.71 29.7504 179.677 29.8615C177.613 30.056 176.581 29.3615 175.548 27.8337C171.323 21.4726 166.903 15.2226 162.548 8.91705C162.387 8.66705 162.161 8.44482 161.677 8.25038V10.0837C161.677 16.2504 161.677 22.4171 161.677 28.5837C161.677 29.5004 161.452 29.9449 160.258 29.806C159.452 29.7226 158.645 29.806 157.742 29.806L157.774 29.8337Z" fill="white"/>
<path fill-rule="evenodd" clip-rule="evenodd" d="M125.71 29.7779V3.80566H155.484V6.41677H129.839V15.3612C130.387 15.3612 130.903 15.4168 131.452 15.4168C138.452 15.4168 145.452 15.4168 152.452 15.4168C152.936 15.4168 153.839 15.5279 153.871 15.7223C154.032 16.4168 154 17.1668 153.871 17.889C153.871 18.0279 153.065 18.139 152.613 18.139C145.581 18.139 138.516 18.139 131.484 18.139C130.936 18.139 130.419 18.139 129.806 18.139V27.0557H155.484V29.7501H125.742L125.71 29.7779Z" fill="white"/>
<path fill-rule="evenodd" clip-rule="evenodd" d="M18.7096 29.8331C17.516 29.8331 16.4837 29.8609 15.4515 29.8331C15.1934 29.8331 14.9031 29.4998 14.7741 29.2498C14.6773 29.0554 14.7418 28.8054 14.7418 28.5554C14.7418 23.5554 14.7418 18.5554 14.7418 13.5554C14.7418 12.3054 14.8386 12.222 16.2579 12.3609C17.9139 12.5091 18.7418 13.2868 18.7418 14.6943C18.7418 19.3054 18.7418 23.8887 18.7418 28.4998V29.8331H18.7096Z" fill="white"/>
<path fill-rule="evenodd" clip-rule="evenodd" d="M52.5486 16.167C51.4195 16.0558 50.355 16.0003 49.355 15.8336C49.1292 15.8058 48.7744 15.4725 48.7744 15.2781C48.7744 10.2781 48.7744 5.30589 48.8066 0.305881C48.8066 0.305881 48.8711 0.250326 48.9357 0.166992H52.5163V16.167H52.5486Z" fill="white"/>
<path fill-rule="evenodd" clip-rule="evenodd" d="M14.8389 0.138672H18.6131V10.472H14.8389V0.138672Z" fill="white"/>
<path d="M0 15.6667C0 15.6667 7.41936 9.1944 23.6452 11.6944C23.6452 11.6944 34.8387 13.8333 37.8387 14.3889C37.8387 14.3889 45.2581 15.8889 49.0323 16.6111C49.0323 16.6111 61.1935 17.8889 67.7419 13.8611C67.7419 13.8611 57.1935 21.1389 45.7097 18.2778C45.7097 18.2778 37 16.9444 28.1935 14.8889C28.1935 14.8889 17.871 12.9167 12.2903 13C12.2903 13 4.22581 13.9167 0.0322576 15.6944L0 15.6667Z" fill="white"/>
</g>
<defs>
<clipPath id="clip0_2294_2361">
<rect width="200" height="30" fill="white"/>
</clipPath>
</defs>
</svg>
