<svg width="101" height="115" viewBox="0 0 101 115" fill="none" xmlns="http://www.w3.org/2000/svg">
<path d="M0 48.5156C0 33.624 12.1065 21.5625 27.0536 21.5625H28.8571C32.8475 21.5625 36.0714 24.7744 36.0714 28.75C36.0714 32.7256 32.8475 35.9375 28.8571 35.9375H27.0536C20.0873 35.9375 14.4286 41.5752 14.4286 48.5156V50.3125H28.8571C36.8154 50.3125 43.2857 56.7588 43.2857 64.6875V79.0625C43.2857 86.9912 36.8154 93.4375 28.8571 93.4375H14.4286C6.47031 93.4375 0 86.9912 0 79.0625V48.5156ZM57.7143 48.5156C57.7143 33.624 69.8208 21.5625 84.7679 21.5625H86.5714C90.5618 21.5625 93.7857 24.7744 93.7857 28.75C93.7857 32.7256 90.5618 35.9375 86.5714 35.9375H84.7679C77.8016 35.9375 72.1429 41.5752 72.1429 48.5156V50.3125H86.5714C94.5297 50.3125 101 56.7588 101 64.6875V79.0625C101 86.9912 94.5297 93.4375 86.5714 93.4375H72.1429C64.1846 93.4375 57.7143 86.9912 57.7143 79.0625V48.5156Z" fill="#D4CED9"/>
</svg>
