<svg width="139" height="90" viewBox="0 0 139 90" fill="none" xmlns="http://www.w3.org/2000/svg">
<path d="M60.1091 13.9513C57.3142 18.1712 55.1155 21.6815 55.1901 21.7562C55.2646 21.7936 60.1091 25.9388 65.9225 30.9056L76.5059 39.9429L78.071 37.0674C79.6362 34.2293 79.6362 34.1546 79.1517 32.6608C75.6115 21.8309 74.8662 19.2168 75.3507 18.806C75.6115 18.5446 78.2574 16.4533 81.1641 14.1753C86.1204 10.3662 86.4558 9.99274 85.6359 9.69399C85.1887 9.50727 83.2137 8.68569 81.3131 7.82677L77.8474 6.29565H71.5496H65.2145L60.1091 13.9513ZM73.4129 10.4035C77.1394 11.2251 76.9531 10.8143 75.0153 14.0633C74.0836 15.6317 73.2265 17.0135 73.1147 17.1255C73.0402 17.2376 72.1086 16.3413 71.0651 15.1463L69.1273 13.0176L67.2641 15.333C66.2579 16.64 65.4008 17.7977 65.4008 17.9844C65.4008 18.1338 65.8852 18.582 66.4815 18.9554L67.5249 19.6649L64.8418 20.1131C62.4568 20.5239 62.1214 20.4865 61.4507 19.889C61.078 19.5529 60.7426 19.1048 60.7426 18.9181C60.7426 18.7313 62.1587 16.8641 63.9102 14.7728C66.6306 11.5239 67.3386 10.889 68.6802 10.5156C70.6552 9.99274 71.326 9.9554 73.4129 10.4035Z" fill="#101020"/>
<path d="M98.9397 8.01348C96.8901 8.94709 95.0641 9.84336 94.915 10.0301C94.7287 10.1795 97.1137 12.2707 100.207 14.6608C103.3 17.0882 105.834 19.1421 105.834 19.2915C105.834 19.4409 104.828 22.8019 103.561 26.7604L101.25 33.9678L102.666 36.9554C103.486 38.5612 104.194 39.9056 104.269 39.9056C104.604 39.9056 125.398 21.8309 125.473 21.4575C125.51 21.2334 123.349 17.7604 120.628 13.7645L115.709 6.48236L109.188 6.40767L102.666 6.33298L98.9397 8.01348ZM112.392 10.5156C113.697 10.889 114.442 11.5612 117.162 14.8848L120.367 18.806L119.51 19.6649C118.653 20.4865 118.541 20.5239 116.156 20.1131C114.777 19.8517 113.66 19.6276 113.66 19.5529C113.66 19.4782 114.144 19.1421 114.777 18.7313L115.858 18.0218L113.883 15.5197L111.871 13.0176L109.97 15.1463C108.405 16.9014 107.958 17.2002 107.66 16.7521C106.281 14.6234 104.753 12.0093 104.641 11.5239C104.567 11.1504 105.126 10.889 106.765 10.5529C109.598 9.99273 110.492 9.99273 112.392 10.5156Z" fill="#101020"/>
<path d="M81.2386 28.3288V29.8226H82.9156H84.5925V28.3288V26.835H82.9156H81.2386V28.3288Z" fill="#101020"/>
<path d="M96.1448 28.3662V29.86L97.9335 29.7479C99.685 29.6359 99.685 29.6359 99.7968 28.2168L99.9086 26.8351H98.0453H96.1448V28.3662Z" fill="#101020"/>
<path d="M10.248 33.5571C8.86918 34.0052 7.67669 35.0508 6.81958 36.6566C6.2606 37.6649 6.1488 38.86 6.1488 44.9471C6.1488 51.5944 6.18607 52.1172 6.96864 53.3496C8.3102 55.4782 9.76355 56.1504 13.3038 56.1504C15.7633 56.1504 16.5459 56.001 17.403 55.3662C18.6327 54.4699 20.1233 51.7438 20.1233 50.3247C20.1233 49.4284 19.9743 49.3164 18.4091 49.0923C15.726 48.7562 15.2788 48.7936 15.2788 49.5405C15.2788 50.5488 14.5335 51.1089 13.192 51.1089C11.0306 51.1089 10.807 50.5488 10.807 44.7604C10.807 40.5405 10.9188 39.4575 11.4032 39.0093C12.5585 37.8143 15.2788 38.5986 15.2788 40.1297C15.2788 40.7272 15.8378 40.7645 18.4464 40.3911L20.1979 40.167L20.0115 38.7479C19.7507 36.7313 18.4837 34.8641 16.9185 34.1172C15.3161 33.3703 11.8131 33.0716 10.248 33.5571Z" fill="#101020"/>
<path d="M21.614 44.7604V55.5902H24.2225H26.8311V51.4824V47.3745H29.067H31.303V51.4824V55.5902H33.7252H36.1475V44.7604V33.9305H33.7252H31.303V38.0384V42.1463H29.067H26.8311V38.0384V33.9305H24.2225H21.614V44.7604Z" fill="#101020"/>
<path d="M41.9981 34.5653C41.3646 36.7313 37.2282 55.2915 37.34 55.4035C37.4145 55.4782 38.5325 55.5902 39.874 55.6276L42.2963 55.7396L42.5944 54.1712L42.8925 52.6027H45.0912C47.2153 52.6027 47.3271 52.64 47.5507 53.611C47.6625 54.2085 47.8115 54.8807 47.9233 55.1048C47.9979 55.4409 48.8922 55.5902 50.681 55.5902C52.5443 55.5902 53.2896 55.4409 53.2523 55.1048C53.2523 54.8807 52.2089 50.0259 50.9418 44.3869L48.5941 34.1172L45.3893 34.0052C42.5571 33.9305 42.1472 33.9678 41.9981 34.5653ZM45.911 44.9471L46.47 47.972L45.203 47.8226C44.4949 47.7106 43.9732 47.4492 43.9732 47.1504C43.9732 45.8434 44.9048 41.4367 45.1284 41.6981C45.2775 41.8475 45.6129 43.3039 45.911 44.9471Z" fill="#101020"/>
<path d="M54.7802 44.7604V55.5902H57.2024H59.6247V44.7604V33.9305H57.2024H54.7802V44.7604Z" fill="#101020"/>
<path d="M82.9155 38.9346L81.015 41.5861L76.9531 41.6981C74.7171 41.7355 72.7421 41.9222 72.5558 42.1089C71.8477 42.8185 73.9346 43.7521 77.9592 44.5363L82.133 45.3205L83.7726 50.4741L85.3751 55.5902H87.4247C89.2134 55.5902 89.4743 55.5156 89.2879 54.918C89.1761 54.5819 88.2445 50.3994 87.1638 45.694C86.1204 40.9512 85.1515 36.918 85.0024 36.694C84.8906 36.4326 83.959 37.4035 82.9155 38.9346Z" fill="#101020"/>
<path d="M94.8778 40.3537C94.3561 42.6691 93.3499 47.0757 92.6418 50.1006L91.3748 55.6276L93.4617 55.5156L95.5113 55.4035L97.1882 50.138L98.8652 44.8351L103.188 44.0508C107.548 43.2293 108.442 42.8558 108.442 41.9222C108.442 41.5114 107.548 41.3994 104.269 41.3994C101.958 41.3994 99.8713 41.25 99.685 41.1006C99.4614 40.9512 98.6416 39.9056 97.8217 38.7853C97.0392 37.6649 96.2566 36.5819 96.1075 36.4326C95.9957 36.2458 95.4367 38.001 94.8778 40.3537Z" fill="#101020"/>
<path d="M62.9786 64.0674L61.6743 64.2168L61.7861 74.9347C61.8606 80.8351 61.9724 85.6898 61.9724 85.6898C62.0097 85.7272 64.73 85.8019 68.0094 85.8766L73.9719 86.0259V83.5986V81.1712L70.3571 81.0591L66.7051 80.9471V72.3952V63.806L65.5126 63.8807C64.8418 63.9181 63.6866 63.9927 62.9786 64.0674Z" fill="#101020"/>
<path d="M76.655 64.0674L75.2389 64.2168L75.3507 74.8226C75.4252 80.6483 75.537 85.4658 75.6488 85.5778C75.7606 85.6525 78.481 85.8392 81.7231 85.9886L87.5737 86.25V83.5985V80.9844H83.8472H80.1207V72.3952V63.806L79.1145 63.8807C78.5182 63.9181 77.4376 63.9927 76.655 64.0674Z" fill="#101020"/>
<path d="M126.851 65.0757C125.808 66.1214 125.584 66.6442 125.584 67.9139C125.584 69.1836 125.808 69.7064 126.851 70.7521C128.342 72.2459 130.28 72.4699 132.143 71.3122C135.721 69.1463 133.857 63.806 129.572 63.806C128.417 63.806 127.858 64.0674 126.851 65.0757ZM131.137 65.1131C132.367 65.7106 132.665 66.3454 132.665 68.138C132.665 70.7521 129.535 71.9098 127.634 69.9678C126.106 68.4741 126.665 65.7479 128.715 64.9264C129.795 64.4782 129.945 64.4782 131.137 65.1131Z" fill="#101020"/>
<path d="M128.193 67.9139C128.193 69.6691 128.305 70.1546 128.752 70.1546C129.087 70.1546 129.311 69.8185 129.311 69.221C129.311 68.138 130.243 68.2874 130.541 69.445C130.653 69.8185 130.988 70.1546 131.286 70.1546C131.733 70.1546 131.808 69.9305 131.547 69.0342C131.361 68.4367 131.323 67.5778 131.435 67.1297C131.696 66.1587 131.025 65.6732 129.423 65.6732H128.193V67.9139ZM130.354 67.0923C130.429 67.3537 130.243 67.5405 129.907 67.5405C129.572 67.5405 129.311 67.2791 129.311 66.943C129.311 66.3081 130.131 66.4201 130.354 67.0923Z" fill="#101020"/>
<path d="M19.378 64.6276C19.378 64.889 20.4587 69.8185 21.7257 75.5695L24.0362 86.0259L27.1292 86.138C30.7067 86.25 30.2595 86.8102 31.6756 80.611C32.3091 77.8848 32.7563 76.5778 32.9054 77.0633C33.0172 77.4741 33.5016 79.416 33.9115 81.3579C34.3587 83.2998 34.8059 85.2043 34.8804 85.5404C35.0668 86.1006 35.5512 86.2126 38.2343 86.2126C39.9485 86.2126 41.3646 86.138 41.3646 86.0633C41.3646 85.9512 42.4453 81.1712 43.7869 75.3828C45.1284 69.5944 46.2091 64.7023 46.2091 64.5156C46.2091 64.3288 45.0912 64.1795 43.6751 64.1795H41.1783L39.9113 70.2292C39.2032 73.5902 38.5697 76.5778 38.4579 76.8765C38.3461 77.1753 37.6381 74.4865 36.93 70.9014L35.5885 64.3662L32.9426 64.2541L30.2968 64.1421L29.3279 68.7355C28.7689 71.2749 28.1354 74.2251 27.9118 75.3081C27.6882 76.3911 27.4274 77.25 27.3528 77.138C27.2783 77.0633 26.7193 74.4865 26.0858 71.4243C25.4895 68.362 24.8933 65.4865 24.7815 65.001C24.5952 64.2541 24.3716 64.1795 21.9866 64.1795C20.1233 64.1795 19.378 64.3288 19.378 64.6276Z" fill="#101020"/>
<path d="M46.9172 74.9346C45.203 82.3662 44.5695 85.7272 44.8676 85.9139C45.0912 86.0633 46.2464 86.2126 47.4016 86.2126H49.563L49.7866 84.7562C50.0475 83.1878 50.681 82.8517 53.4759 82.8517C54.5939 82.8517 54.7057 82.9637 54.9292 84.3081C55.041 85.1297 55.2646 85.8765 55.451 85.9512C55.6 86.0633 56.8298 86.0259 58.1713 85.8765L60.6309 85.6525L59.6247 81.1712C59.0284 78.7064 57.9477 73.889 57.2024 70.416L55.7863 64.1795H52.5815H49.3767L46.9172 74.9346ZM53.6622 77.8848C53.6622 78.1836 53.1778 78.3703 52.3579 78.3703C51.6499 78.3703 51.0536 78.2583 51.0536 78.0716C51.0536 77.9222 51.3518 76.279 51.6872 74.4492L52.3207 71.0882L52.9542 74.2624C53.3268 76.0176 53.625 77.6608 53.6622 77.8848Z" fill="#101020"/>
<path d="M93.2008 65.5612C92.9772 66.3454 91.8593 71.1629 90.704 76.2417C88.3191 86.6608 88.2818 86.2126 91.5239 86.2126C93.5362 86.2126 93.9089 85.9139 93.9089 84.3081C93.9089 83.4492 95.2504 82.8516 97.2628 82.8516C98.6788 82.8516 98.7161 82.889 99.0142 84.4575L99.3496 86.0259L101.921 85.8765C103.374 85.8019 104.567 85.7272 104.604 85.6898C104.679 85.6151 101.027 68.9969 100.058 65.001C99.8713 64.2168 99.6477 64.1794 96.7038 64.1794H93.5735L93.2008 65.5612ZM97.0764 74.4118C97.859 78.4077 97.859 78.3703 96.2939 78.3703C95.2132 78.3703 95.0268 78.2583 95.1759 77.6981C95.2504 77.362 95.5485 75.7562 95.8094 74.1877C96.0703 72.5819 96.3311 71.3496 96.4056 71.4243C96.4802 71.499 96.7783 72.8433 97.0764 74.4118Z" fill="#101020"/>
<path d="M106.095 70.9761C105.759 79.9014 105.759 85.7645 106.132 85.9512C106.281 86.0259 107.436 86.0259 108.741 85.9139L111.051 85.7645V81.694V77.6234H113.287H115.523V81.9554C115.523 86.2873 115.523 86.2873 116.38 86.0633C116.827 85.9512 117.908 85.8392 118.802 85.8392H120.367V75.0093V64.1795H117.945H115.523V68.4741V72.7687H113.287H111.051V68.4741V64.1795H108.703H106.318L106.095 70.9761Z" fill="#101020"/>
</svg>
