<svg width="200" height="30" viewBox="0 0 200 30" fill="none" xmlns="http://www.w3.org/2000/svg">
<path fill-rule="evenodd" clip-rule="evenodd" d="M48.7419 29.8333V26.9444C48.7419 24.2778 48.7419 21.6111 48.7419 18.9444C48.7419 18.3056 48.9677 18.0556 49.7419 18.0833C50.6452 18.1389 51.5807 18.0833 52.6774 18.0833V23.5C52.7742 23.5 52.871 23.5278 52.9677 23.5556C53.129 23.3611 53.3226 23.1944 53.4839 22.9722C54.5807 21.4167 55.6452 19.8333 56.7742 18.25C56.9677 17.9722 57.2258 17.6389 57.5484 17.5556C58.9355 17.1667 60.3548 16.8611 62.0323 16.4722C61.3226 17.5556 60.7097 18.4444 60 19.4722H77.8387C74.8387 15.1389 71.9355 10.9167 68.9032 6.52778C67.1936 8.97223 65.4516 11.1944 64.0968 13.5833C62.9032 15.6944 60.7742 15.5833 58.4516 15.8889C58.9032 15.2222 59.1936 14.7222 59.5161 14.25C61.7742 11 64.0323 7.75 66.2581 4.47222C66.6452 3.88889 67.129 3.72222 67.9032 3.63889C70.1936 3.36111 71.4516 4.16667 72.5807 5.91667C76.2258 11.4722 80.129 16.9444 83.9032 22.4167C84.1613 22.7778 84.4194 23.1389 84.9677 23.4444V0.111115C85.6129 0.111115 86.0645 0.111115 86.5161 0.111115C95 0.111115 103.452 0.111114 111.935 0.138892C114.677 0.138892 117.323 0.66667 119.677 1.94445C124.935 4.80556 125.129 10.25 120.097 13.3889C119.645 13.6667 119.161 13.9444 118.548 14.3056C119.097 14.6667 119.581 14.9722 120.065 15.2778C122.226 16.6944 123.452 18.5 123.355 20.9167C123.29 22.4722 123.355 24.0556 123.355 25.6111C123.355 27.0833 123.613 28.5278 124.839 29.8333C123.677 29.8333 122.677 29.8889 121.71 29.8056C121.387 29.8056 120.935 29.4444 120.871 29.1944C120.581 28.1389 120.29 27.0556 120.226 25.9722C120.129 24.2778 120.161 22.5833 120.226 20.8889C120.29 19.5 119.581 18.4444 118.387 17.6111C116.645 16.3889 114.613 15.6944 112.419 15.6944C104.871 15.6389 97.3226 15.6944 89.7742 15.6944C89.6129 15.6944 89.4839 15.7222 89.1936 15.75C89.1936 16.1944 89.0968 16.6667 89.0968 17.1111C89.0968 20.9722 89.0968 24.8333 89.0968 28.6944C89.0968 29.5833 88.8387 29.8333 87.7419 29.9167C85.7097 30.0833 84.4839 29.5556 83.5807 27.9167C82.6452 26.1944 81.4194 24.6111 80.2258 23.0278C79.9678 22.6944 79.3548 22.3611 78.871 22.3611C72.2581 22.3056 65.6452 22.3611 59.0323 22.3333C58.3226 22.3333 57.9032 22.5278 57.5484 23.0556C56.1936 25.1111 54.7419 27.1111 53.3871 29.1667C53 29.75 52.5806 29.9444 51.8387 29.8889C50.9032 29.8333 50 29.8889 48.8387 29.8889L48.7419 29.8333ZM89.0968 2.86111V12.8611C89.3548 12.8889 89.5161 12.9444 89.6452 12.9444C97.1613 12.9444 104.645 12.9722 112.161 12.9444C114.323 12.9444 116.355 12.3611 118.129 11.2222C121.419 9.11111 121.226 5.97222 117.677 4.19445C115.839 3.27778 113.806 2.88889 111.677 2.88889C104.613 2.88889 97.5161 2.88889 90.4516 2.88889H89.0968V2.86111Z" fill="#854A97"/>
<path fill-rule="evenodd" clip-rule="evenodd" d="M157.774 29.8333V3.75001C159.419 3.75001 161 3.72223 162.581 3.77779C162.903 3.77779 163.258 4.16667 163.452 4.44445C168.387 11.5556 173.323 18.6945 178.226 25.8056C178.452 26.1111 178.645 26.4167 179 26.8889C179.323 26.4445 179.581 26.1389 179.806 25.8333C184.71 18.75 189.613 11.6389 194.516 4.55556C194.903 3.97223 195.323 3.69445 196.161 3.72223C197.355 3.77779 198.548 3.72223 199.806 3.72223V29.75H195.839V9.05556C195.742 9.02779 195.677 9.00001 195.581 8.97223C195.387 9.22223 195.161 9.44445 195 9.69445C190.613 16.0556 186.194 22.3889 181.839 28.75C181.323 29.5278 180.71 29.75 179.677 29.8611C177.613 30.0556 176.581 29.3611 175.548 27.8333C171.323 21.4722 166.903 15.2222 162.548 8.91668C162.387 8.66668 162.161 8.44445 161.677 8.25001V10.0833C161.677 16.25 161.677 22.4167 161.677 28.5833C161.677 29.5 161.452 29.9445 160.258 29.8056C159.452 29.7222 158.645 29.8056 157.742 29.8056L157.774 29.8333Z" fill="#854A97"/>
<path fill-rule="evenodd" clip-rule="evenodd" d="M125.71 29.7778V3.80557H155.484V6.41668H129.839V15.3611C130.387 15.3611 130.903 15.4167 131.452 15.4167C138.452 15.4167 145.452 15.4167 152.452 15.4167C152.936 15.4167 153.839 15.5278 153.871 15.7222C154.032 16.4167 154 17.1667 153.871 17.8889C153.871 18.0278 153.065 18.1389 152.613 18.1389C145.581 18.1389 138.516 18.1389 131.484 18.1389C130.936 18.1389 130.419 18.1389 129.806 18.1389V27.0556H155.484V29.75H125.742L125.71 29.7778Z" fill="#854A97"/>
<path fill-rule="evenodd" clip-rule="evenodd" d="M18.7098 29.8333C17.5162 29.8333 16.4839 29.8611 15.4517 29.8333C15.1936 29.8333 14.9033 29.5 14.7743 29.25C14.6775 29.0556 14.742 28.8056 14.742 28.5556C14.742 23.5556 14.742 18.5556 14.742 13.5556C14.742 12.3056 14.8388 12.2222 16.2581 12.3611C17.9141 12.5093 18.742 13.287 18.742 14.6945C18.742 19.3056 18.742 23.8889 18.742 28.5V29.8333H18.7098Z" fill="#854A97"/>
<path fill-rule="evenodd" clip-rule="evenodd" d="M52.5484 16.1667C51.4193 16.0555 50.3548 16 49.3548 15.8333C49.129 15.8055 48.7742 15.4722 48.7742 15.2778C48.7742 10.2778 48.7742 5.30555 48.8064 0.305545C48.8064 0.305545 48.8709 0.24999 48.9355 0.166656H52.5161V16.1667H52.5484Z" fill="#854A97"/>
<path fill-rule="evenodd" clip-rule="evenodd" d="M14.8386 0.138885H18.6128V10.4722H14.8386V0.138885Z" fill="#854A97"/>
<path d="M0 15.6667C0 15.6667 7.41936 9.19444 23.6452 11.6944C23.6452 11.6944 34.8387 13.8333 37.8387 14.3889C37.8387 14.3889 45.2581 15.8889 49.0323 16.6111C49.0323 16.6111 61.1935 17.8889 67.7419 13.8611C67.7419 13.8611 57.1935 21.1389 45.7097 18.2778C45.7097 18.2778 37 16.9444 28.1935 14.8889C28.1935 14.8889 17.871 12.9167 12.2903 13C12.2903 13 4.22581 13.9167 0.0322576 15.6944L0 15.6667Z" fill="#8A8826"/>
</svg>
